<?xml version="1.0" encoding="utf-8"?>
<!-- Generator: Adobe Illustrator 21.0.2, SVG Export Plug-In . SVG Version: 6.00 Build 0)  -->
<svg version="1.1" xmlns="http://www.w3.org/2000/svg" xmlns:xlink="http://www.w3.org/1999/xlink" x="0px" y="0px" viewBox="0 0 194 194" style="enable-background:new 0 0 194 194;" xml:space="preserve">
    <style type="text/css">.st0{fill:#231F20;}.st1{fill:#ED1C24;}.st2{fill:#339933;}.st3{fill:#FFF200;}.st4{fill:#FFFFFF;}.st5{fill:none;stroke:#339933;stroke-miterlimit:10;}</style>
    <g id="art">
        <path id="border" class="st0" d="M28.1,194C12.6,194,0,181.4,0,165.9V28.1C0,12.6,12.6,0,28.1,0H166c15.4,0,28,12.6,28,28.1V166c0,15.5-12.6,28.1-28.1,28.1H28.1V194z" style="fill: #000000"/>
        <path id="background" class="st1" d="M4,165V29C4,15.2,15.2,4,29,4h136c13.8,0,25,11.2,25,25v136c0,13.8-11.2,25-25,25H29C15.2,190,4,178.8,4,165z" style="fill: #dddddd"/>
        <image id="image" x="16.2" y="19.3" class="st2" width="161.9" height="155.2" xlink:href="" preserveAspectRatio="xMidYMid slice"/>
        <path id="mask" class="st3" d="M165,4H29C15.2,4,4,15.2,4,29v136c0,13.8,11.2,25,25,25h136c13.8,0,25-11.2,25-25V29C190,15.2,178.8,4,165,4z M145.9,117.8c-0.3,0-0.6,0-1,0c8.4,5.5,14,15.1,14,25.9c0,17.1-13.9,31-31,31c-15.2,0-27.8-10.9-30.4-25.4c-2.8,14.2-15.3,25-30.4,25c-17.1,0-31-13.9-31-31c0-11.3,6-21.1,15-26.5c-1,0.1-2,0.2-3.1,0.2c-17.1,0-31-13.9-31-31s13.9-31,31-31c7.9,0,15.1,3,20.6,7.8C67,59,66,54.8,66,50.3c0-17.1,13.9-31,31-31s31,13.9,31,31c0,5.1-1.2,9.9-3.4,14.1c5.6-5.3,13.1-8.5,21.3-8.5c17.1,0,31,13.9,31,31C176.8,104,163,117.8,145.9,117.8z" style="fill: #ffffff"/>
        <path id="overlay" class="st4" d="M128,175.6c-14.1,0-26.3-9.2-30.5-22.3c-4.3,12.9-16.4,21.9-30.3,21.9c-17.6,0-32-14.3-32-32c0-10.1,4.6-19.4,12.5-25.4c-17.4-0.2-31.5-14.5-31.5-32c0-17.6,14.3-32,32-32c6.6,0,13,2,18.4,5.8c-1-3.1-1.4-6.2-1.4-9.5c0-17.6,14.3-32,32-32s32,14.3,32,32c0,3.7-0.6,7.3-1.8,10.7c5.4-3.9,11.9-6.1,18.7-6.1c17.6,0,32,14.3,32,32c0,16.9-13.2,30.8-29.9,31.9c7.6,6,12,15.2,12,24.9C159.9,161.3,145.6,175.6,128,175.6z M97.5,143.9l0.9,5.2c2.6,14.2,15,24.5,29.5,24.5c16.5,0,30-13.4,30-30c0-10.1-5.1-19.5-13.6-25.1l-3-1.9l3.8,0.1c0.2,0,0.5,0,0.7,0c16.5,0,30-13.4,30-30c0-16.5-13.4-30-30-30c-7.7,0-15,2.9-20.6,8.3l-4.3,4.1l2.7-5.3c2.2-4.3,3.3-8.9,3.3-13.7c0-16.5-13.4-30-30-30c-16.5,0-30,13.4-30,30c0,4.2,0.9,8.3,2.6,12.1l1.9,4.2L68,63.6C62.5,58.7,55.5,56,48.1,56c-16.5,0-30,13.4-30,30s13.4,30,30,30c1,0,2,0,3-0.1l4.4-0.4l-3.8,2.3c-9.1,5.5-14.5,15.1-14.5,25.7c0,16.5,13.4,30,30,30c14.3,0,26.6-10.2,29.4-24.1L97.5,143.9z" style="fill: #000000"/>
    </g>
    <g id="data">
        <line x1="22" y1="12" x2="22.01" y2="12.01" style="fill: none; stroke: #333333; stroke-width: 5.00; stroke-linecap: round; stroke-linejoin: round;"/>
        <line x1="42" y1="12" x2="42.009998" y2="12.01" style="fill: none; stroke: #333333; stroke-width: 5.00; stroke-linecap: round; stroke-linejoin: round;"/>
        <line x1="62" y1="12" x2="62.009998" y2="12.01" style="fill: none; stroke: #333333; stroke-width: 5.00; stroke-linecap: round; stroke-linejoin: round;"/>
        <line x1="82" y1="12" x2="82.010002" y2="12.01" style="fill: none; stroke: #333333; stroke-width: 5.00; stroke-linecap: round; stroke-linejoin: round;"/>
        <line x1="101.99999" y1="12" x2="102.00999" y2="12.01" style="fill: none; stroke: #333333; stroke-width: 5.00; stroke-linecap: round; stroke-linejoin: round;"/>
        <line x1="122" y1="12" x2="122.01" y2="12.01" style="fill: none; stroke: #333333; stroke-width: 5.00; stroke-linecap: round; stroke-linejoin: round;"/>
        <line x1="142" y1="12" x2="142.00999" y2="12.01" style="fill: none; stroke: #333333; stroke-width: 5.00; stroke-linecap: round; stroke-linejoin: round;"/>
        <line x1="152" y1="12" x2="152.00999" y2="12.01" style="fill: none; stroke: #333333; stroke-width: 5.00; stroke-linecap: round; stroke-linejoin: round;"/>
        <line x1="172" y1="12" x2="172.00999" y2="12.01" style="fill: none; stroke: #333333; stroke-width: 5.00; stroke-linecap: round; stroke-linejoin: round;"/>
        <line x1="12" y1="22" x2="12.01" y2="22.01" style="fill: none; stroke: #333333; stroke-width: 5.00; stroke-linecap: round; stroke-linejoin: round;"/>
        <line x1="32" y1="22" x2="32.009998" y2="22.01" style="fill: none; stroke: #333333; stroke-width: 5.00; stroke-linecap: round; stroke-linejoin: round;"/>
        <line x1="52" y1="22" x2="52.009998" y2="22.01" style="fill: none; stroke: #333333; stroke-width: 5.00; stroke-linecap: round; stroke-linejoin: round;"/>
        <line x1="72" y1="22" x2="72.010002" y2="22.01" style="fill: none; stroke: #333333; stroke-width: 5.00; stroke-linecap: round; stroke-linejoin: round;"/>
        <line x1="132" y1="22" x2="132.00999" y2="22.01" style="fill: none; stroke: #333333; stroke-width: 5.00; stroke-linecap: round; stroke-linejoin: round;"/>
        <line x1="152" y1="22" x2="152.00999" y2="22.01" style="fill: none; stroke: #333333; stroke-width: 5.00; stroke-linecap: round; stroke-linejoin: round;"/>
        <line x1="162" y1="22" x2="162.00999" y2="22.01" style="fill: none; stroke: #333333; stroke-width: 5.00; stroke-linecap: round; stroke-linejoin: round;"/>
        <line x1="182" y1="22" x2="182.00999" y2="22.01" style="fill: none; stroke: #333333; stroke-width: 5.00; stroke-linecap: round; stroke-linejoin: round;"/>
        <line x1="32" y1="32" x2="32.009998" y2="32.009998" style="fill: none; stroke: #333333; stroke-width: 5.00; stroke-linecap: round; stroke-linejoin: round;"/>
        <line x1="42" y1="32" x2="42.009998" y2="32.009998" style="fill: none; stroke: #333333; stroke-width: 5.00; stroke-linecap: round; stroke-linejoin: round;"/>
        <line x1="62" y1="32" x2="62.009998" y2="32.009998" style="fill: none; stroke: #333333; stroke-width: 5.00; stroke-linecap: round; stroke-linejoin: round;"/>
        <line x1="142" y1="32" x2="142.00999" y2="32.009998" style="fill: none; stroke: #333333; stroke-width: 5.00; stroke-linecap: round; stroke-linejoin: round;"/>
        <line x1="162" y1="32" x2="162.00999" y2="32.009998" style="fill: none; stroke: #333333; stroke-width: 5.00; stroke-linecap: round; stroke-linejoin: round;"/>
        <line x1="172" y1="32" x2="172.00999" y2="32.009998" style="fill: none; stroke: #333333; stroke-width: 5.00; stroke-linecap: round; stroke-linejoin: round;"/>
        <line x1="182" y1="32" x2="182.00999" y2="32.009998" style="fill: none; stroke: #333333; stroke-width: 5.00; stroke-linecap: round; stroke-linejoin: round;"/>
        <line x1="22" y1="42" x2="22.01" y2="42.009998" style="fill: none; stroke: #333333; stroke-width: 5.00; stroke-linecap: round; stroke-linejoin: round;"/>
        <line x1="42" y1="42" x2="42.009998" y2="42.009998" style="fill: none; stroke: #333333; stroke-width: 5.00; stroke-linecap: round; stroke-linejoin: round;"/>
        <line x1="52" y1="42" x2="52.009998" y2="42.009998" style="fill: none; stroke: #333333; stroke-width: 5.00; stroke-linecap: round; stroke-linejoin: round;"/>
        <line x1="152" y1="42" x2="152.00999" y2="42.009998" style="fill: none; stroke: #333333; stroke-width: 5.00; stroke-linecap: round; stroke-linejoin: round;"/>
        <line x1="172" y1="42" x2="172.00999" y2="42.009998" style="fill: none; stroke: #333333; stroke-width: 5.00; stroke-linecap: round; stroke-linejoin: round;"/>
        <line x1="12" y1="52" x2="12.01" y2="52.009998" style="fill: none; stroke: #333333; stroke-width: 5.00; stroke-linecap: round; stroke-linejoin: round;"/>
        <line x1="22" y1="52" x2="22.01" y2="52.009998" style="fill: none; stroke: #333333; stroke-width: 5.00; stroke-linecap: round; stroke-linejoin: round;"/>
        <line x1="162" y1="52" x2="162.00999" y2="52.009998" style="fill: none; stroke: #333333; stroke-width: 5.00; stroke-linecap: round; stroke-linejoin: round;"/>
        <line x1="182" y1="52" x2="182.00999" y2="52.009998" style="fill: none; stroke: #333333; stroke-width: 5.00; stroke-linecap: round; stroke-linejoin: round;"/>
        <line x1="12" y1="62" x2="12.01" y2="62.009998" style="fill: none; stroke: #333333; stroke-width: 5.00; stroke-linecap: round; stroke-linejoin: round;"/>
        <line x1="182" y1="72" x2="182.00999" y2="72.010002" style="fill: none; stroke: #333333; stroke-width: 5.00; stroke-linecap: round; stroke-linejoin: round;"/>
        <line x1="12" y1="82" x2="12.01" y2="82.010002" style="fill: none; stroke: #333333; stroke-width: 5.00; stroke-linecap: round; stroke-linejoin: round;"/>
        <line x1="182" y1="92" x2="182.00999" y2="92.010002" style="fill: none; stroke: #333333; stroke-width: 5.00; stroke-linecap: round; stroke-linejoin: round;"/>
        <line x1="12" y1="101.99999" x2="12.01" y2="102.00999" style="fill: none; stroke: #333333; stroke-width: 5.00; stroke-linecap: round; stroke-linejoin: round;"/>
        <line x1="182" y1="112" x2="182.00999" y2="112.01" style="fill: none; stroke: #333333; stroke-width: 5.00; stroke-linecap: round; stroke-linejoin: round;"/>
        <line x1="12" y1="122" x2="12.01" y2="122.01" style="fill: none; stroke: #333333; stroke-width: 5.00; stroke-linecap: round; stroke-linejoin: round;"/>
        <line x1="32" y1="122" x2="32.009998" y2="122.01" style="fill: none; stroke: #333333; stroke-width: 5.00; stroke-linecap: round; stroke-linejoin: round;"/>
        <line x1="162" y1="122" x2="162.00999" y2="122.01" style="fill: none; stroke: #333333; stroke-width: 5.00; stroke-linecap: round; stroke-linejoin: round;"/>
        <line x1="172" y1="122" x2="172.00999" y2="122.01" style="fill: none; stroke: #333333; stroke-width: 5.00; stroke-linecap: round; stroke-linejoin: round;"/>
        <line x1="182" y1="122" x2="182.00999" y2="122.01" style="fill: none; stroke: #333333; stroke-width: 5.00; stroke-linecap: round; stroke-linejoin: round;"/>
        <line x1="22" y1="132" x2="22.01" y2="132.00999" style="fill: none; stroke: #333333; stroke-width: 5.00; stroke-linecap: round; stroke-linejoin: round;"/>
        <line x1="182" y1="132" x2="182.00999" y2="132.00999" style="fill: none; stroke: #333333; stroke-width: 5.00; stroke-linecap: round; stroke-linejoin: round;"/>
        <line x1="12" y1="142" x2="12.01" y2="142.00999" style="fill: none; stroke: #333333; stroke-width: 5.00; stroke-linecap: round; stroke-linejoin: round;"/>
        <line x1="172" y1="142" x2="172.00999" y2="142.00999" style="fill: none; stroke: #333333; stroke-width: 5.00; stroke-linecap: round; stroke-linejoin: round;"/>
        <line x1="22" y1="152" x2="22.01" y2="152.00999" style="fill: none; stroke: #333333; stroke-width: 5.00; stroke-linecap: round; stroke-linejoin: round;"/>
        <line x1="172" y1="152" x2="172.00999" y2="152.00999" style="fill: none; stroke: #333333; stroke-width: 5.00; stroke-linecap: round; stroke-linejoin: round;"/>
        <line x1="22" y1="162" x2="22.01" y2="162.00999" style="fill: none; stroke: #333333; stroke-width: 5.00; stroke-linecap: round; stroke-linejoin: round;"/>
        <line x1="32" y1="162" x2="32.009998" y2="162.00999" style="fill: none; stroke: #333333; stroke-width: 5.00; stroke-linecap: round; stroke-linejoin: round;"/>
        <line x1="172" y1="162" x2="172.00999" y2="162.00999" style="fill: none; stroke: #333333; stroke-width: 5.00; stroke-linecap: round; stroke-linejoin: round;"/>
        <line x1="12" y1="172" x2="12.01" y2="172.00999" style="fill: none; stroke: #333333; stroke-width: 5.00; stroke-linecap: round; stroke-linejoin: round;"/>
        <line x1="22" y1="172" x2="22.01" y2="172.00999" style="fill: none; stroke: #333333; stroke-width: 5.00; stroke-linecap: round; stroke-linejoin: round;"/>
        <line x1="42" y1="172" x2="42.009998" y2="172.00999" style="fill: none; stroke: #333333; stroke-width: 5.00; stroke-linecap: round; stroke-linejoin: round;"/>
        <line x1="92" y1="172" x2="92.010002" y2="172.00999" style="fill: none; stroke: #333333; stroke-width: 5.00; stroke-linecap: round; stroke-linejoin: round;"/>
        <line x1="162" y1="172" x2="162.00999" y2="172.00999" style="fill: none; stroke: #333333; stroke-width: 5.00; stroke-linecap: round; stroke-linejoin: round;"/>
        <line x1="182" y1="172" x2="182.00999" y2="172.00999" style="fill: none; stroke: #333333; stroke-width: 5.00; stroke-linecap: round; stroke-linejoin: round;"/>
        <line x1="32" y1="182" x2="32.009998" y2="182.00999" style="fill: none; stroke: #333333; stroke-width: 5.00; stroke-linecap: round; stroke-linejoin: round;"/>
        <line x1="42" y1="182" x2="42.009998" y2="182.00999" style="fill: none; stroke: #333333; stroke-width: 5.00; stroke-linecap: round; stroke-linejoin: round;"/>
        <line x1="62" y1="182" x2="62.009998" y2="182.00999" style="fill: none; stroke: #333333; stroke-width: 5.00; stroke-linecap: round; stroke-linejoin: round;"/>
        <line x1="72" y1="182" x2="72.010002" y2="182.00999" style="fill: none; stroke: #333333; stroke-width: 5.00; stroke-linecap: round; stroke-linejoin: round;"/>
        <line x1="82" y1="182" x2="82.010002" y2="182.00999" style="fill: none; stroke: #333333; stroke-width: 5.00; stroke-linecap: round; stroke-linejoin: round;"/>
        <line x1="92" y1="182" x2="92.010002" y2="182.00999" style="fill: none; stroke: #333333; stroke-width: 5.00; stroke-linecap: round; stroke-linejoin: round;"/>
        <line x1="101.99999" y1="182" x2="102.00999" y2="182.00999" style="fill: none; stroke: #333333; stroke-width: 5.00; stroke-linecap: round; stroke-linejoin: round;"/>
        <line x1="112" y1="182" x2="112.01" y2="182.00999" style="fill: none; stroke: #333333; stroke-width: 5.00; stroke-linecap: round; stroke-linejoin: round;"/>
        <line x1="122" y1="182" x2="122.01" y2="182.00999" style="fill: none; stroke: #333333; stroke-width: 5.00; stroke-linecap: round; stroke-linejoin: round;"/>
        <line x1="132" y1="182" x2="132.00999" y2="182.00999" style="fill: none; stroke: #333333; stroke-width: 5.00; stroke-linecap: round; stroke-linejoin: round;"/>
        <line x1="142" y1="182" x2="142.00999" y2="182.00999" style="fill: none; stroke: #333333; stroke-width: 5.00; stroke-linecap: round; stroke-linejoin: round;"/>
        <line x1="152" y1="182" x2="152.00999" y2="182.00999" style="fill: none; stroke: #333333; stroke-width: 5.00; stroke-linecap: round; stroke-linejoin: round;"/>
        <line x1="172" y1="182" x2="172.00999" y2="182.00999" style="fill: none; stroke: #333333; stroke-width: 5.00; stroke-linecap: round; stroke-linejoin: round;"/>
    </g>
</svg>
